<mxfile host="Electron" agent="Mozilla/5.0 (Windows NT 10.0; Win64; x64) AppleWebKit/537.36 (KHTML, like Gecko) draw.io/25.0.2 Chrome/128.0.6613.186 Electron/32.2.5 Safari/537.36" version="25.0.2">
  <diagram name="Страница — 1" id="DgmTYFVHxFgBFi4CZHFh">
    <mxGraphModel dx="915" dy="665" grid="1" gridSize="10" guides="1" tooltips="1" connect="1" arrows="1" fold="1" page="1" pageScale="1" pageWidth="827" pageHeight="1169" math="0" shadow="0">
      <root>
        <mxCell id="0" />
        <mxCell id="1" parent="0" />
        <mxCell id="eVBwNJqslw_1n1bbN_LB-24" style="edgeStyle=orthogonalEdgeStyle;rounded=0;orthogonalLoop=1;jettySize=auto;html=1;" parent="1" source="eVBwNJqslw_1n1bbN_LB-2" target="eVBwNJqslw_1n1bbN_LB-13" edge="1">
          <mxGeometry relative="1" as="geometry">
            <Array as="points">
              <mxPoint x="389" y="210" />
              <mxPoint x="610" y="210" />
            </Array>
          </mxGeometry>
        </mxCell>
        <mxCell id="eVBwNJqslw_1n1bbN_LB-2" value="&lt;font style=&quot;font-size: 10px;&quot;&gt;Руководства по применению лекарственных препаратов&lt;/font&gt;" style="text;html=1;align=center;verticalAlign=middle;whiteSpace=wrap;rounded=0;" parent="1" vertex="1">
          <mxGeometry x="344" y="60" width="90" height="60" as="geometry" />
        </mxCell>
        <mxCell id="eVBwNJqslw_1n1bbN_LB-3" style="edgeStyle=orthogonalEdgeStyle;rounded=0;orthogonalLoop=1;jettySize=auto;html=1;jumpStyle=arc;" parent="1" source="eVBwNJqslw_1n1bbN_LB-2" target="eVBwNJqslw_1n1bbN_LB-6" edge="1">
          <mxGeometry relative="1" as="geometry">
            <mxPoint x="389" y="220" as="targetPoint" />
            <Array as="points" />
          </mxGeometry>
        </mxCell>
        <mxCell id="eVBwNJqslw_1n1bbN_LB-4" style="edgeStyle=orthogonalEdgeStyle;rounded=0;orthogonalLoop=1;jettySize=auto;html=1;" parent="1" source="eVBwNJqslw_1n1bbN_LB-7" target="eVBwNJqslw_1n1bbN_LB-6" edge="1">
          <mxGeometry relative="1" as="geometry">
            <mxPoint x="180" y="430" as="sourcePoint" />
            <Array as="points">
              <mxPoint x="160" y="415" />
              <mxPoint x="160" y="415" />
            </Array>
          </mxGeometry>
        </mxCell>
        <mxCell id="eVBwNJqslw_1n1bbN_LB-5" style="edgeStyle=orthogonalEdgeStyle;rounded=0;orthogonalLoop=1;jettySize=auto;html=1;" parent="1" source="eVBwNJqslw_1n1bbN_LB-13" target="eVBwNJqslw_1n1bbN_LB-23" edge="1">
          <mxGeometry relative="1" as="geometry">
            <mxPoint x="760" y="569.9999999999999" as="targetPoint" />
            <Array as="points">
              <mxPoint x="880" y="520" />
              <mxPoint x="880" y="520" />
            </Array>
          </mxGeometry>
        </mxCell>
        <mxCell id="eVBwNJqslw_1n1bbN_LB-6" value="Выбрать необходимое лекарство" style="rounded=0;whiteSpace=wrap;html=1;" parent="1" vertex="1">
          <mxGeometry x="319" y="375" width="140" height="80" as="geometry" />
        </mxCell>
        <mxCell id="eVBwNJqslw_1n1bbN_LB-7" value="Список применимых лекарств" style="text;html=1;align=center;verticalAlign=middle;whiteSpace=wrap;rounded=0;" parent="1" vertex="1">
          <mxGeometry x="80" y="390" width="60" height="50" as="geometry" />
        </mxCell>
        <mxCell id="eVBwNJqslw_1n1bbN_LB-8" value="Данные о выборе оператора" style="text;html=1;align=center;verticalAlign=middle;whiteSpace=wrap;rounded=0;" parent="1" vertex="1">
          <mxGeometry x="940" y="450" width="60" height="50" as="geometry" />
        </mxCell>
        <mxCell id="eVBwNJqslw_1n1bbN_LB-11" style="edgeStyle=orthogonalEdgeStyle;rounded=0;orthogonalLoop=1;jettySize=auto;html=1;" parent="1" source="eVBwNJqslw_1n1bbN_LB-12" target="eVBwNJqslw_1n1bbN_LB-6" edge="1">
          <mxGeometry relative="1" as="geometry">
            <mxPoint x="250" y="490" as="targetPoint" />
            <mxPoint x="250" y="645" as="sourcePoint" />
            <Array as="points">
              <mxPoint x="400" y="685" />
            </Array>
          </mxGeometry>
        </mxCell>
        <mxCell id="eVBwNJqslw_1n1bbN_LB-15" style="edgeStyle=orthogonalEdgeStyle;rounded=0;orthogonalLoop=1;jettySize=auto;html=1;" parent="1" source="eVBwNJqslw_1n1bbN_LB-12" target="eVBwNJqslw_1n1bbN_LB-13" edge="1">
          <mxGeometry relative="1" as="geometry">
            <Array as="points">
              <mxPoint x="389" y="590" />
              <mxPoint x="610" y="590" />
            </Array>
          </mxGeometry>
        </mxCell>
        <mxCell id="eVBwNJqslw_1n1bbN_LB-12" value="Оператор" style="text;html=1;align=center;verticalAlign=middle;resizable=0;points=[];autosize=1;strokeColor=none;fillColor=none;" parent="1" vertex="1">
          <mxGeometry x="349" y="670" width="80" height="30" as="geometry" />
        </mxCell>
        <mxCell id="eVBwNJqslw_1n1bbN_LB-13" value="Выбрать дозировку" style="rounded=0;whiteSpace=wrap;html=1;" parent="1" vertex="1">
          <mxGeometry x="540" y="455" width="140" height="80" as="geometry" />
        </mxCell>
        <mxCell id="eVBwNJqslw_1n1bbN_LB-18" value="&lt;span style=&quot;font-size: 10px;&quot;&gt;Данные о лекарственном препарате&lt;/span&gt;" style="text;html=1;align=center;verticalAlign=middle;whiteSpace=wrap;rounded=0;" parent="1" vertex="1">
          <mxGeometry x="500" y="360" width="90" height="60" as="geometry" />
        </mxCell>
        <mxCell id="eVBwNJqslw_1n1bbN_LB-19" style="edgeStyle=orthogonalEdgeStyle;rounded=0;orthogonalLoop=1;jettySize=auto;html=1;" parent="1" source="eVBwNJqslw_1n1bbN_LB-6" target="eVBwNJqslw_1n1bbN_LB-13" edge="1">
          <mxGeometry relative="1" as="geometry">
            <mxPoint x="469" y="425" as="sourcePoint" />
            <mxPoint x="550" y="505" as="targetPoint" />
            <Array as="points">
              <mxPoint x="490" y="410" />
              <mxPoint x="490" y="495" />
            </Array>
          </mxGeometry>
        </mxCell>
        <mxCell id="eVBwNJqslw_1n1bbN_LB-20" value="" style="endArrow=none;html=1;rounded=0;" parent="1" source="eVBwNJqslw_1n1bbN_LB-18" edge="1">
          <mxGeometry width="50" height="50" relative="1" as="geometry">
            <mxPoint x="510" y="420" as="sourcePoint" />
            <mxPoint x="490" y="460" as="targetPoint" />
          </mxGeometry>
        </mxCell>
        <mxCell id="eVBwNJqslw_1n1bbN_LB-22" style="edgeStyle=orthogonalEdgeStyle;rounded=0;orthogonalLoop=1;jettySize=auto;html=1;" parent="1" source="eVBwNJqslw_1n1bbN_LB-13" target="eVBwNJqslw_1n1bbN_LB-8" edge="1">
          <mxGeometry relative="1" as="geometry">
            <mxPoint x="900" y="570" as="sourcePoint" />
            <Array as="points">
              <mxPoint x="820" y="480" />
              <mxPoint x="820" y="480" />
            </Array>
          </mxGeometry>
        </mxCell>
        <mxCell id="eVBwNJqslw_1n1bbN_LB-23" value="Данные о препарате" style="text;html=1;align=center;verticalAlign=middle;whiteSpace=wrap;rounded=0;" parent="1" vertex="1">
          <mxGeometry x="940" y="500" width="60" height="50" as="geometry" />
        </mxCell>
      </root>
    </mxGraphModel>
  </diagram>
</mxfile>
